<?xml version="1.0" standalone="no"?>
<!DOCTYPE svg PUBLIC "-//W3C//DTD SVG 20010904//EN"
 "http://www.w3.org/TR/2001/REC-SVG-20010904/DTD/svg10.dtd">
<svg version="1.0" xmlns="http://www.w3.org/2000/svg"
 width="181.000000pt" height="181.000000pt" viewBox="0 0 181.000000 181.000000"
 preserveAspectRatio="xMidYMid meet">
<metadata>
Created by potrace 1.14, written by Peter Selinger 2001-2017
</metadata>
<g transform="translate(0.000000,181.000000) scale(0.100000,-0.100000)"
fill="#000000" stroke="none">
<path d="M780 1801 c-363 -53 -659 -319 -751 -676 -33 -127 -33 -312 0 -440
29 -111 100 -257 162 -335 26 -32 46 -61 43 -64 -2 -3 -1 -4 2 -1 4 2 34 -21
68 -52 65 -60 175 -135 216 -148 14 -4 30 -11 36 -16 26 -21 206 -60 304 -66
159 -9 319 26 468 101 28 14 55 27 58 29 34 12 282 261 291 291 9 31 62 123
69 118 4 -4 4 -2 1 4 -4 6 4 42 17 80 54 157 58 357 10 528 -14 50 -29 96 -34
101 -4 6 -11 21 -15 35 -28 90 -208 298 -318 368 -26 16 -44 32 -40 34 4 3 3
4 -4 2 -6 -1 -40 11 -75 28 -134 66 -358 101 -508 79z"/>
</g>
</svg>
